<svg xmlns="http://www.w3.org/2000/svg" xmlns:xlink="http://www.w3.org/1999/xlink" width="1481.107" height="320" viewBox="0 0 1481.107 320">
  <defs>
    <clipPath id="clip-path">
      <rect width="19.748" height="18" fill="none"/>
    </clipPath>
    <clipPath id="clip-path-6">
      <rect width="18" height="18" fill="none"/>
    </clipPath>
  </defs>
  <g id="_1_SIDE" data-name="1 SIDE" transform="translate(-220 -448)">
    <g id="Album_songs" data-name="Album songs" transform="translate(30.4 -26.5)">
      <path id="Hide" d="M6379-271.7l9,9,9-9" transform="translate(8049 218.297) rotate(180)" fill="none" stroke="#fff" stroke-width="2"/>
      <text id="Album_songs-2" data-name="Album songs" transform="translate(1551 490.5)" fill="#fff" font-size="16" font-family="Lato-Regular, Lato" letter-spacing="0.006em"><tspan x="0" y="0">Album songs</tspan></text>
    </g>
    <g id="ARTIST">
      <text id="The_Smashing_Pumpkins" data-name="The Smashing Pumpkins" transform="translate(894 659)" fill="#fff" font-size="15" font-family="Lato-Regular, Lato" letter-spacing="0.006em"><tspan x="0" y="0">The Smashing Pumpkins</tspan></text>
      <text id="The_Smashing_Pumpkins-2" data-name="The Smashing Pumpkins" transform="translate(894 712)" fill="#fff" font-size="15" font-family="Lato-Regular, Lato" letter-spacing="0.006em"><tspan x="0" y="0">The Smashing Pumpkins</tspan></text>
      <text id="The_Smashing_Pumpkins-3" data-name="The Smashing Pumpkins" transform="translate(894 606)" fill="#fff" font-size="15" font-family="Lato-Regular, Lato" letter-spacing="0.006em"><tspan x="0" y="0">The Smashing Pumpkins</tspan></text>
      <text id="The_Smashing_Pumpkins-4" data-name="The Smashing Pumpkins" transform="translate(894 765)" fill="#fff" font-size="15" font-family="Lato-Regular, Lato" letter-spacing="0.006em"><tspan x="0" y="0">The Smashing Pumpkins</tspan></text>
      <text id="The_Smashing_Pumpkins-5" data-name="The Smashing Pumpkins" transform="translate(894 553)" fill="#fff" font-size="15" font-family="Lato-Regular, Lato" letter-spacing="0.006em"><tspan x="0" y="0">The Smashing Pumpkins</tspan></text>
      <text id="ARTIST-2" data-name="ARTIST" transform="translate(894 515)" fill="#99999f" font-size="14" font-family="Lato-Bold, Lato" font-weight="700" letter-spacing="0.006em"><tspan x="0" y="0">ARTIST</tspan></text>
    </g>
    <g id="TIME">
      <text id="_2:52" data-name="2:52" transform="translate(1548 553)" fill="#99999f" font-size="15" font-family="Lato-Regular, Lato" letter-spacing="0.006em"><tspan x="0" y="0">2:52</tspan></text>
      <text id="_4:14" data-name="4:14" transform="translate(1548 606)" fill="#99999f" font-size="15" font-family="Lato-Regular, Lato" letter-spacing="0.006em"><tspan x="0" y="0">4:14</tspan></text>
      <text id="_3:01" data-name="3:01" transform="translate(1548 659)" fill="#99999f" font-size="15" font-family="Lato-Regular, Lato" letter-spacing="0.006em"><tspan x="0" y="0">3:01</tspan></text>
      <text id="_2:41" data-name="2:41" transform="translate(1548 712)" fill="#99999f" font-size="15" font-family="Lato-Regular, Lato" letter-spacing="0.006em"><tspan x="0" y="0">2:41</tspan></text>
      <text id="_3:45" data-name="3:45" transform="translate(1548 765)" fill="#99999f" font-size="15" font-family="Lato-Regular, Lato" letter-spacing="0.006em"><tspan x="0" y="0">3:45</tspan></text>
      <text id="TIME-2" data-name="TIME" transform="translate(1548 515)" fill="#99999f" font-size="14" font-family="Lato-Bold, Lato" font-weight="700" letter-spacing="0.006em"><tspan x="0" y="0">TIME</tspan></text>
    </g>
    <g id="Tittle_" data-name="Tittle &amp; #">
      <text id="Jellybelly" transform="translate(260 659)" fill="#fff" font-size="15" font-family="Lato-Regular, Lato" letter-spacing="0.006em"><tspan x="0" y="0">Jellybelly</tspan></text>
      <text id="Zero" transform="translate(260 712)" fill="#fff" font-size="15" font-family="Lato-Regular, Lato" letter-spacing="0.006em"><tspan x="0" y="0">Zero</tspan></text>
      <text id="Tonight_Tonight" data-name="Tonight, Tonight" transform="translate(260 606)" fill="#fff" font-size="15" font-family="Lato-Regular, Lato" letter-spacing="0.006em"><tspan x="0" y="0">Tonight, Tonight</tspan></text>
      <text id="Here_Is_No_Why" data-name="Here Is No Why" transform="translate(260 765)" fill="#fff" font-size="15" font-family="Lato-Regular, Lato" letter-spacing="0.006em"><tspan x="0" y="0">Here Is No Why</tspan></text>
      <text id="TITTLE" transform="translate(260.4 515)" fill="#99999f" font-size="14" font-family="Lato-Bold, Lato" font-weight="700" letter-spacing="0.006em"><tspan x="0" y="0">TITTLE</tspan></text>
      <text id="_2" data-name="2" transform="translate(229 606)" fill="#99999f" font-size="16" font-family="Lato-Bold, Lato" font-weight="700" letter-spacing="0.006em"><tspan x="-4.64" y="0">2</tspan></text>
      <text id="_3" data-name="3" transform="translate(229 659)" fill="#99999f" font-size="16" font-family="Lato-Bold, Lato" font-weight="700" letter-spacing="0.006em"><tspan x="-4.64" y="0">3</tspan></text>
      <text id="_4" data-name="4" transform="translate(229 712)" fill="#99999f" font-size="16" font-family="Lato-Bold, Lato" font-weight="700" letter-spacing="0.006em"><tspan x="-4.64" y="0">4</tspan></text>
      <text id="_5" data-name="5" transform="translate(229 765)" fill="#99999f" font-size="16" font-family="Lato-Bold, Lato" font-weight="700" letter-spacing="0.006em"><tspan x="-4.64" y="0">5</tspan></text>
      <text id="Mellon_Collie_and_the_Infinite_Sadnness" data-name="Mellon Collie and the Infinite Sadnness" transform="translate(260 553)" fill="#fff" font-size="15" font-family="Lato-Regular, Lato" letter-spacing="0.006em"><tspan x="0" y="0">Mellon Collie and the Infinite Sadnness</tspan></text>
      <text id="_" data-name="#" transform="translate(220.6 515)" fill="#99999f" font-size="14" font-family="Lato-Bold, Lato" font-weight="700" letter-spacing="0.006em"><tspan x="0" y="0">#</tspan></text>
      <text id="_1" data-name="1" transform="translate(228.6 553)" fill="#99999f" font-size="16" font-family="Lato-Bold, Lato" font-weight="700" letter-spacing="0.006em"><tspan x="-4.64" y="0">1</tspan></text>
    </g>
    <g id="Group_1162" data-name="Group 1162" transform="translate(-66.6 -85)">
      <g id="Rectangle_2606" data-name="Rectangle 2606" transform="translate(286.6 533)" fill="none" stroke="#fff" stroke-width="1.5">
        <rect width="22" height="22" rx="11" stroke="none"/>
        <rect x="0.75" y="0.75" width="20.5" height="20.5" rx="10.25" fill="none"/>
      </g>
      <g id="Rectangle_2607" data-name="Rectangle 2607" transform="translate(293.475 539.875)" fill="none" stroke="#fff" stroke-width="1.5">
        <rect width="8.25" height="8.25" rx="4.125" stroke="none"/>
        <rect x="0.75" y="0.75" width="6.75" height="6.75" rx="3.375" fill="none"/>
      </g>
    </g>
    <text id="_1_SIDE-2" data-name="1 SIDE" transform="translate(276 464)" fill="#fff" font-size="16" font-family="Lato-Regular, Lato" letter-spacing="0.006em"><tspan x="-24.212" y="0">1 SIDE</tspan></text>
    <g id="Playlist_Fav" data-name="Playlist / Fav">
      <g id="Add_to_Favorite_web_" data-name="Add to Favorite (web)" transform="translate(1632 537)" clip-path="url(#clip-path)">
        <g id="Add_to_Favorite_web_2" data-name="Add to Favorite (web)" transform="translate(-0.55 -0.5)" fill="none">
          <path d="M2.244,2.189a5.755,5.755,0,0,0,0,8.155l8.18,8.156,8.18-8.156a5.775,5.775,0,0,0-8.18-8.155A5.8,5.8,0,0,0,2.244,2.189Z" stroke="none"/>
          <path d="M 6.334162712097168 1.999992370605469 C 5.189072608947754 1.999992370605469 4.112743377685547 2.444381713867188 3.303432464599609 3.25133228302002 C 2.495323181152344 4.057042121887207 2.050283432006836 5.127962112426758 2.05029296875 6.266812324523926 C 2.05029296875 7.405652046203613 2.495332717895508 8.476542472839355 3.303442001342773 9.282241821289062 L 10.42398071289062 16.3818187713623 L 17.54477310180664 9.282232284545898 C 18.35285186767578 8.476542472839355 18.79788208007812 7.405641555786133 18.7978630065918 6.26682186126709 C 18.79784202575684 5.127971649169922 18.3527717590332 4.057071685791016 17.54459381103516 3.251321792602539 C 16.73527336120605 2.444392204284668 15.65892219543457 1.999992370605469 14.51382255554199 1.999992370605469 C 13.36871337890625 1.999992370605469 12.29237270355225 2.444392204284668 11.48306274414062 3.251321792602539 L 10.42395305633545 4.307321548461914 L 9.364852905273438 3.251312255859375 C 8.555572509765625 2.444381713867188 7.479252815246582 1.999992370605469 6.334162712097168 1.999992370605469 M 6.33416748046875 0.4999961853027344 C 7.814390182495117 0.4999961853027344 9.294608116149902 1.063032150268555 10.42396259307861 2.189102172851562 C 12.68275260925293 -0.06303977966308594 16.34489250183105 -0.06303977966308594 18.60368347167969 2.189102172851562 C 20.86256217956543 4.44115161895752 20.86256217956543 8.092452049255371 18.60385322570801 10.34446239471436 L 10.42396259307861 18.50000190734863 L 2.244342803955078 10.34446239471436 C -0.01439666748046875 8.092452049255371 -0.01439666748046875 4.44115161895752 2.244342803955078 2.189102172851562 C 3.37371826171875 1.063032150268555 4.853945732116699 0.4999961853027344 6.33416748046875 0.4999961853027344 Z" stroke="none" fill="#fff"/>
        </g>
      </g>
      <g id="Add_to_Favorite_web_3" data-name="Add to Favorite (web)" transform="translate(1632 749)" clip-path="url(#clip-path)">
        <g id="Add_to_Favorite_web_4" data-name="Add to Favorite (web)" transform="translate(-0.55 -0.5)" fill="none">
          <path d="M2.244,2.189a5.755,5.755,0,0,0,0,8.155l8.18,8.156,8.18-8.156a5.775,5.775,0,0,0-8.18-8.155A5.8,5.8,0,0,0,2.244,2.189Z" stroke="none"/>
          <path d="M 6.334162712097168 1.999992370605469 C 5.189072608947754 1.999992370605469 4.112743377685547 2.444381713867188 3.303432464599609 3.25133228302002 C 2.495323181152344 4.057042121887207 2.050283432006836 5.127962112426758 2.05029296875 6.266812324523926 C 2.05029296875 7.405652046203613 2.495332717895508 8.476542472839355 3.303442001342773 9.282241821289062 L 10.42398071289062 16.3818187713623 L 17.54477310180664 9.282232284545898 C 18.35285186767578 8.476542472839355 18.79788208007812 7.405641555786133 18.7978630065918 6.26682186126709 C 18.79784202575684 5.127971649169922 18.3527717590332 4.057071685791016 17.54459381103516 3.251321792602539 C 16.73527336120605 2.444392204284668 15.65892219543457 1.999992370605469 14.51382255554199 1.999992370605469 C 13.36871337890625 1.999992370605469 12.29237270355225 2.444392204284668 11.48306274414062 3.251321792602539 L 10.42395305633545 4.307321548461914 L 9.364852905273438 3.251312255859375 C 8.555572509765625 2.444381713867188 7.479252815246582 1.999992370605469 6.334162712097168 1.999992370605469 M 6.33416748046875 0.4999961853027344 C 7.814390182495117 0.4999961853027344 9.294608116149902 1.063032150268555 10.42396259307861 2.189102172851562 C 12.68275260925293 -0.06303977966308594 16.34489250183105 -0.06303977966308594 18.60368347167969 2.189102172851562 C 20.86256217956543 4.44115161895752 20.86256217956543 8.092452049255371 18.60385322570801 10.34446239471436 L 10.42396259307861 18.50000190734863 L 2.244342803955078 10.34446239471436 C -0.01439666748046875 8.092452049255371 -0.01439666748046875 4.44115161895752 2.244342803955078 2.189102172851562 C 3.37371826171875 1.063032150268555 4.853945732116699 0.4999961853027344 6.33416748046875 0.4999961853027344 Z" stroke="none" fill="#fff"/>
        </g>
      </g>
      <g id="Add_to_Favorite_web_5" data-name="Add to Favorite (web)" transform="translate(1632 643)" clip-path="url(#clip-path)">
        <g id="Add_to_Favorite_web_6" data-name="Add to Favorite (web)" transform="translate(-0.55 -0.5)" fill="none">
          <path d="M2.244,2.189a5.755,5.755,0,0,0,0,8.155l8.18,8.156,8.18-8.156a5.775,5.775,0,0,0-8.18-8.155A5.8,5.8,0,0,0,2.244,2.189Z" stroke="none"/>
          <path d="M 6.334162712097168 1.999992370605469 C 5.189072608947754 1.999992370605469 4.112743377685547 2.444381713867188 3.303432464599609 3.25133228302002 C 2.495323181152344 4.057042121887207 2.050283432006836 5.127962112426758 2.05029296875 6.266812324523926 C 2.05029296875 7.405652046203613 2.495332717895508 8.476542472839355 3.303442001342773 9.282241821289062 L 10.42398071289062 16.3818187713623 L 17.54477310180664 9.282232284545898 C 18.35285186767578 8.476542472839355 18.79788208007812 7.405641555786133 18.7978630065918 6.26682186126709 C 18.79784202575684 5.127971649169922 18.3527717590332 4.057071685791016 17.54459381103516 3.251321792602539 C 16.73527336120605 2.444392204284668 15.65892219543457 1.999992370605469 14.51382255554199 1.999992370605469 C 13.36871337890625 1.999992370605469 12.29237270355225 2.444392204284668 11.48306274414062 3.251321792602539 L 10.42395305633545 4.307321548461914 L 9.364852905273438 3.251312255859375 C 8.555572509765625 2.444381713867188 7.479252815246582 1.999992370605469 6.334162712097168 1.999992370605469 M 6.33416748046875 0.4999961853027344 C 7.814390182495117 0.4999961853027344 9.294608116149902 1.063032150268555 10.42396259307861 2.189102172851562 C 12.68275260925293 -0.06303977966308594 16.34489250183105 -0.06303977966308594 18.60368347167969 2.189102172851562 C 20.86256217956543 4.44115161895752 20.86256217956543 8.092452049255371 18.60385322570801 10.34446239471436 L 10.42396259307861 18.50000190734863 L 2.244342803955078 10.34446239471436 C -0.01439666748046875 8.092452049255371 -0.01439666748046875 4.44115161895752 2.244342803955078 2.189102172851562 C 3.37371826171875 1.063032150268555 4.853945732116699 0.4999961853027344 6.33416748046875 0.4999961853027344 Z" stroke="none" fill="#fff"/>
        </g>
      </g>
      <g id="Add_to_Favorite_web_7" data-name="Add to Favorite (web)" transform="translate(1632 590)" clip-path="url(#clip-path)">
        <g id="Add_to_Favorite_web_8" data-name="Add to Favorite (web)" transform="translate(-0.55 -0.5)" fill="none">
          <path d="M2.244,2.189a5.755,5.755,0,0,0,0,8.155l8.18,8.156,8.18-8.156a5.775,5.775,0,0,0-8.18-8.155A5.8,5.8,0,0,0,2.244,2.189Z" stroke="none"/>
          <path d="M 6.334162712097168 1.999992370605469 C 5.189072608947754 1.999992370605469 4.112743377685547 2.444381713867188 3.303432464599609 3.25133228302002 C 2.495323181152344 4.057042121887207 2.050283432006836 5.127962112426758 2.05029296875 6.266812324523926 C 2.05029296875 7.405652046203613 2.495332717895508 8.476542472839355 3.303442001342773 9.282241821289062 L 10.42398071289062 16.3818187713623 L 17.54477310180664 9.282232284545898 C 18.35285186767578 8.476542472839355 18.79788208007812 7.405641555786133 18.7978630065918 6.26682186126709 C 18.79784202575684 5.127971649169922 18.3527717590332 4.057071685791016 17.54459381103516 3.251321792602539 C 16.73527336120605 2.444392204284668 15.65892219543457 1.999992370605469 14.51382255554199 1.999992370605469 C 13.36871337890625 1.999992370605469 12.29237270355225 2.444392204284668 11.48306274414062 3.251321792602539 L 10.42395305633545 4.307321548461914 L 9.364852905273438 3.251312255859375 C 8.555572509765625 2.444381713867188 7.479252815246582 1.999992370605469 6.334162712097168 1.999992370605469 M 6.33416748046875 0.4999961853027344 C 7.814390182495117 0.4999961853027344 9.294608116149902 1.063032150268555 10.42396259307861 2.189102172851562 C 12.68275260925293 -0.06303977966308594 16.34489250183105 -0.06303977966308594 18.60368347167969 2.189102172851562 C 20.86256217956543 4.44115161895752 20.86256217956543 8.092452049255371 18.60385322570801 10.34446239471436 L 10.42396259307861 18.50000190734863 L 2.244342803955078 10.34446239471436 C -0.01439666748046875 8.092452049255371 -0.01439666748046875 4.44115161895752 2.244342803955078 2.189102172851562 C 3.37371826171875 1.063032150268555 4.853945732116699 0.4999961853027344 6.33416748046875 0.4999961853027344 Z" stroke="none" fill="#fff"/>
        </g>
      </g>
      <g id="Add_to_Favorite_web_9" data-name="Add to Favorite (web)" transform="translate(1632 696)" clip-path="url(#clip-path)">
        <g id="Add_to_Favorite_web_10" data-name="Add to Favorite (web)" transform="translate(-0.55 -0.5)" fill="none">
          <path d="M2.244,2.189a5.755,5.755,0,0,0,0,8.155l8.18,8.156,8.18-8.156a5.775,5.775,0,0,0-8.18-8.155A5.8,5.8,0,0,0,2.244,2.189Z" stroke="none"/>
          <path d="M 6.334162712097168 1.999992370605469 C 5.189072608947754 1.999992370605469 4.112743377685547 2.444381713867188 3.303432464599609 3.25133228302002 C 2.495323181152344 4.057042121887207 2.050283432006836 5.127962112426758 2.05029296875 6.266812324523926 C 2.05029296875 7.405652046203613 2.495332717895508 8.476542472839355 3.303442001342773 9.282241821289062 L 10.42398071289062 16.3818187713623 L 17.54477310180664 9.282232284545898 C 18.35285186767578 8.476542472839355 18.79788208007812 7.405641555786133 18.7978630065918 6.26682186126709 C 18.79784202575684 5.127971649169922 18.3527717590332 4.057071685791016 17.54459381103516 3.251321792602539 C 16.73527336120605 2.444392204284668 15.65892219543457 1.999992370605469 14.51382255554199 1.999992370605469 C 13.36871337890625 1.999992370605469 12.29237270355225 2.444392204284668 11.48306274414062 3.251321792602539 L 10.42395305633545 4.307321548461914 L 9.364852905273438 3.251312255859375 C 8.555572509765625 2.444381713867188 7.479252815246582 1.999992370605469 6.334162712097168 1.999992370605469 M 6.33416748046875 0.4999961853027344 C 7.814390182495117 0.4999961853027344 9.294608116149902 1.063032150268555 10.42396259307861 2.189102172851562 C 12.68275260925293 -0.06303977966308594 16.34489250183105 -0.06303977966308594 18.60368347167969 2.189102172851562 C 20.86256217956543 4.44115161895752 20.86256217956543 8.092452049255371 18.60385322570801 10.34446239471436 L 10.42396259307861 18.50000190734863 L 2.244342803955078 10.34446239471436 C -0.01439666748046875 8.092452049255371 -0.01439666748046875 4.44115161895752 2.244342803955078 2.189102172851562 C 3.37371826171875 1.063032150268555 4.853945732116699 0.4999961853027344 6.33416748046875 0.4999961853027344 Z" stroke="none" fill="#fff"/>
        </g>
      </g>
      <g id="Add_To_Playlist_web_" data-name="Add To Playlist (web)" transform="translate(1672 537)" clip-path="url(#clip-path-6)">
        <rect id="Rectangle_2601" data-name="Rectangle 2601" width="1.5" height="18" transform="translate(8.25)" fill="#fff"/>
        <rect id="Rectangle_2602" data-name="Rectangle 2602" width="1.5" height="18" transform="translate(18 8.249) rotate(90)" fill="#fff"/>
      </g>
      <g id="Add_To_Playlist_web_2" data-name="Add To Playlist (web)" transform="translate(1672 749)" clip-path="url(#clip-path-6)">
        <rect id="Rectangle_2601-2" data-name="Rectangle 2601" width="1.5" height="18" transform="translate(8.25)" fill="#fff"/>
        <rect id="Rectangle_2602-2" data-name="Rectangle 2602" width="1.5" height="18" transform="translate(18 8.249) rotate(90)" fill="#fff"/>
      </g>
      <g id="Add_To_Playlist_web_3" data-name="Add To Playlist (web)" transform="translate(1672 643)" clip-path="url(#clip-path-6)">
        <rect id="Rectangle_2601-3" data-name="Rectangle 2601" width="1.5" height="18" transform="translate(8.25)" fill="#fff"/>
        <rect id="Rectangle_2602-3" data-name="Rectangle 2602" width="1.5" height="18" transform="translate(18 8.249) rotate(90)" fill="#fff"/>
      </g>
      <g id="Add_To_Playlist_web_4" data-name="Add To Playlist (web)" transform="translate(1672 590)" clip-path="url(#clip-path-6)">
        <rect id="Rectangle_2601-4" data-name="Rectangle 2601" width="1.5" height="18" transform="translate(8.25)" fill="#fff"/>
        <rect id="Rectangle_2602-4" data-name="Rectangle 2602" width="1.5" height="18" transform="translate(18 8.249) rotate(90)" fill="#fff"/>
      </g>
      <g id="Add_To_Playlist_web_5" data-name="Add To Playlist (web)" transform="translate(1672 696)" clip-path="url(#clip-path-6)">
        <rect id="Rectangle_2601-5" data-name="Rectangle 2601" width="1.5" height="18" transform="translate(8.25)" fill="#fff"/>
        <rect id="Rectangle_2602-5" data-name="Rectangle 2602" width="1.5" height="18" transform="translate(18 8.249) rotate(90)" fill="#fff"/>
      </g>
    </g>
  </g>
</svg>
